<svg xmlns="http://www.w3.org/2000/svg" viewBox="0 0 24 24"><path d="M15.5,12C18,12 20,14 20,16.5C20,17.38 19.75,18.21 19.31,18.9L22.39,22L21,23.39L17.88,20.32C17.19,20.75 16.37,21 15.5,21C13,21 11,19 11,16.5C11,14 13,12 15.5,12M15.5,14A2.5,2.5 0 0,0 13,16.5A2.5,2.5 0 0,0 15.5,19A2.5,2.5 0 0,0 18,16.5A2.5,2.5 0 0,0 15.5,14M5,4H20V10.17C19.5,10.06 19,10 18.5,10C18,10 17.5,10.06 17,10.17V6H5V18H9.09C9.18,18.72 9.38,19.39 9.69,20H5A2,2 0 0,1 3,18V4A2,2 0 0,1 5,2H20A2,2 0 0,1 22,4V10.17C21.19,10.06 20.5,10 19.78,10.12L20,10.17V4H5Z"/></svg>
