<svg xmlns="http://www.w3.org/2000/svg" viewBox="0 0 24 24"><path d="M12,3C7.58,3 4,4.79 4,7V17C4,19.21 7.58,21 12,21C16.42,21 20,19.21 20,17V7C20,4.79 16.42,3 12,3M18,17C18,18.12 15.31,19 12,19C8.69,19 6,18.12 6,17V14.77C7.35,15.54 9.52,16 12,16C14.48,16 16.65,15.54 18,14.77V17M18,12.45C16.7,13.4 14.42,14 12,14C9.58,14 7.3,13.4 6,12.45V9.64C7.35,10.41 9.52,10.87 12,10.87C14.48,10.87 16.65,10.41 18,9.64V12.45M12,9C8.69,9 6,8.12 6,7C6,5.88 8.69,5 12,5C15.31,5 18,5.88 18,7C18,8.12 15.31,9 12,9Z"/></svg>
